ffmpeg started on 2025-07-16 at 15:46:36
Report written to "D:\Convert\FFMetrics\reports\ssim_report-6.txt"
Log level: 32
Command line:
ffmpeg -hide_banner -nostdin -i "G:\\\xc0\xed\xe8\xec\xe5\\Shiza\\\xcb\xe5\xe3\xe5\xed\xe4\xe0 \xee \xc3\xf0\xe0\xed\xea\xf0\xe5\xf1\xf2\xe5\\[SHIZA Project] Grancrest Senki TV [03] [nDrOiDze & Lianna]_HEVC.mkv" -i "G:\\\xc0\xed\xe8\xec\xe5\\Shiza\\\xcb\xe5\xe3\xe5\xed\xe4\xe0 \xee \xc3\xf0\xe0\xed\xea\xf0\xe5\xf1\xf2\xe5\\[SHIZA Project] Grancrest Senki TV [03] [nDrOiDze & Lianna].mkv" -lavfi "[0:v]settb=AVTB,setpts=PTS-STARTPTS,format=pix_fmts=yuv420p10,fps=24000/1001,scale=1280:720:flags=bicubic[main];[1:v]settb=AVTB,setpts=PTS-STARTPTS,format=pix_fmts=yuv420p,fps=24000/1001,scale=1280:720:flags=bicubic[ref];[main][ref]ssim=eof_action=endall:stats_file='D\\:/Convert/FFMetrics/logs/ssim_logfile-6.txt'" -f null -
Input #0, matroska,webm, from 'G:\Аниме\Shiza\Легенда о Гранкресте\[SHIZA Project] Grancrest Senki TV [03] [nDrOiDze & Lianna]_HEVC.mkv':
  Metadata:
    ENCODER         : Lavf61.7.100
  Duration: 00:23:41.93, start: -0.021000, bitrate: 837 kb/s
  Stream #0:0(jpn): Video: hevc (Main 10), yuv420p10le(tv, bt709, progressive), 1280x720 [SAR 1:1 DAR 16:9], 23.81 fps, 23.81 tbr, 1k tbn (default)
      Metadata:
        title           : [SHIZA Project] Grancrest Senki TV [WEBRip]
        ENCODER         : Lavc61.19.100 libx265
        BPS             : 639617
        DURATION        : 00:23:40.146000000
        NUMBER_OF_FRAMES: 34050
        NUMBER_OF_BYTES : 113543831
        _STATISTICS_WRITING_APP: mkvpropedit v66.0.0 ('Josie') 64-bit
        _STATISTICS_WRITING_DATE_UTC: 2025-07-14 08:06:40
        _STATISTICS_TAGS: BPS DURATION NUMBER_OF_FRAMES NUMBER_OF_BYTES
  Stream #0:1(rus): Audio: aac (LC), 48000 Hz, stereo, fltp (default)
      Metadata:
        title           : [nDrOiDze & Lianna
        ENCODER         : Lavc61.19.100 aac
        BPS             : 194609
        DURATION        : 00:23:41.909000000
        NUMBER_OF_FRAMES: 66653
        NUMBER_OF_BYTES : 34589564
        _STATISTICS_WRITING_APP: mkvpropedit v66.0.0 ('Josie') 64-bit
        _STATISTICS_WRITING_DATE_UTC: 2025-07-14 08:06:40
        _STATISTICS_TAGS: BPS DURATION NUMBER_OF_FRAMES NUMBER_OF_BYTES
Input #1, matroska,webm, from 'G:\Аниме\Shiza\Легенда о Гранкресте\[SHIZA Project] Grancrest Senki TV [03] [nDrOiDze & Lianna].mkv':
  Metadata:
    encoder         : libebml v1.3.4 + libmatroska v1.4.5
    creation_time   : 2018-01-22T22:01:14.000000Z
  Duration: 00:23:41.91, start: 0.000000, bitrate: 2063 kb/s
  Stream #1:0(jpn): Video: h264 (High), yuv420p(progressive), 1280x720 [SAR 1:1 DAR 16:9], 23.81 fps, 23.81 tbr, 1k tbn (default)
      Metadata:
        title           : [SHIZA Project] Grancrest Senki TV [WEBRip]
        BPS             : 1772501
        BPS-eng         : 1772501
        DURATION        : 00:23:40.128000000
        DURATION-eng    : 00:23:40.128000000
        NUMBER_OF_FRAMES: 34050
        NUMBER_OF_FRAMES-eng: 34050
        NUMBER_OF_BYTES : 314647355
        NUMBER_OF_BYTES-eng: 314647355
        _STATISTICS_WRITING_APP: mkvmerge v10.0.0 ('To Drown In You') 64bit
        _STATISTICS_WRITING_APP-eng: mkvmerge v10.0.0 ('To Drown In You') 64bit
        _STATISTICS_WRITING_DATE_UTC: 2018-01-22 22:01:14
        _STATISTICS_WRITING_DATE_UTC-eng: 2018-01-22 22:01:14
        _STATISTICS_TAGS: BPS DURATION NUMBER_OF_FRAMES NUMBER_OF_BYTES
        _STATISTICS_TAGS-eng: BPS DURATION NUMBER_OF_FRAMES NUMBER_OF_BYTES
  Stream #1:1(rus): Audio: aac (LC), 48000 Hz, stereo, fltp (default)
      Metadata:
        title           : [nDrOiDze & Lianna
        BPS             : 289479
        BPS-eng         : 289479
        DURATION        : 00:23:41.909000000
        DURATION-eng    : 00:23:41.909000000
        NUMBER_OF_FRAMES: 66652
        NUMBER_OF_FRAMES-eng: 66652
        NUMBER_OF_BYTES : 51451695
        NUMBER_OF_BYTES-eng: 51451695
        _STATISTICS_WRITING_APP: mkvmerge v10.0.0 ('To Drown In You') 64bit
        _STATISTICS_WRITING_APP-eng: mkvmerge v10.0.0 ('To Drown In You') 64bit
        _STATISTICS_WRITING_DATE_UTC: 2018-01-22 22:01:14
        _STATISTICS_WRITING_DATE_UTC-eng: 2018-01-22 22:01:14
        _STATISTICS_TAGS: BPS DURATION NUMBER_OF_FRAMES NUMBER_OF_BYTES
        _STATISTICS_TAGS-eng: BPS DURATION NUMBER_OF_FRAMES NUMBER_OF_BYTES
  Stream #1:2: Attachment: ttf
      Metadata:
        filename        : OpenSans-Semibold.ttf
        mimetype        : application/x-truetype-font
Stream mapping:
  Stream #0:0 (hevc) -> settb:default
  Stream #1:0 (h264) -> settb:default
  ssim:default -> Stream #0:0 (wrapped_avframe)
  Stream #0:1 -> #0:1 (aac (native) -> pcm_s16le (native))
[swscaler @ 0000027aaae00940] No accelerated colorspace conversion found from yuv420p to bgr48le.
[swscaler @ 0000027aaaf4c1c0] No accelerated colorspace conversion found from yuv420p to bgr48le.
[swscaler @ 0000027aab07f040] No accelerated colorspace conversion found from yuv420p to bgr48le.
[swscaler @ 0000027aab2475c0] No accelerated colorspace conversion found from yuv420p to bgr48le.
[swscaler @ 0000027aab2ff780] No accelerated colorspace conversion found from yuv420p to bgr48le.
[swscaler @ 0000027aab44b040] No accelerated colorspace conversion found from yuv420p to bgr48le.
[swscaler @ 0000027aab4a6040] No accelerated colorspace conversion found from yuv420p to bgr48le.
[swscaler @ 0000027aab518740] No accelerated colorspace conversion found from yuv420p to bgr48le.
[swscaler @ 0000027aab595040] No accelerated colorspace conversion found from yuv420p to bgr48le.
[swscaler @ 0000027aab5f4040] No accelerated colorspace conversion found from yuv420p to bgr48le.
[swscaler @ 0000027aab61f940] No accelerated colorspace conversion found from yuv420p to bgr48le.
[swscaler @ 0000027aaf17e900] No accelerated colorspace conversion found from yuv420p to bgr48le.
[swscaler @ 0000027aaf1db040] No accelerated colorspace conversion found from yuv420p to bgr48le.
[swscaler @ 0000027aaf23e040] No accelerated colorspace conversion found from yuv420p to bgr48le.
[swscaler @ 0000027aaf2c1040] No accelerated colorspace conversion found from yuv420p to bgr48le.
[swscaler @ 0000027aaf33f040] No accelerated colorspace conversion found from yuv420p to bgr48le.
Output #0, null, to 'pipe:':
  Metadata:
    encoder         : Lavf61.7.100
  Stream #0:0: Video: wrapped_avframe, yuv420p10le(tv, bt709, progressive), 1280x720 [SAR 1:1 DAR 16:9], q=2-31, 200 kb/s, 23.98 fps, 23.98 tbn
      Metadata:
        encoder         : Lavc61.19.100 wrapped_avframe
  Stream #0:1(rus): Audio: pcm_s16le, 48000 Hz, stereo, s16, 1536 kb/s (default)
      Metadata:
        title           : [nDrOiDze & Lianna
        _STATISTICS_TAGS: BPS DURATION NUMBER_OF_FRAMES NUMBER_OF_BYTES
        BPS             : 194609
        DURATION        : 00:23:41.909000000
        NUMBER_OF_FRAMES: 66653
        NUMBER_OF_BYTES : 34589564
        _STATISTICS_WRITING_APP: mkvpropedit v66.0.0 ('Josie') 64-bit
        _STATISTICS_WRITING_DATE_UTC: 2025-07-14 08:06:40
        encoder         : Lavc61.19.100 pcm_s16le
frame=   74 fps=0.0 q=-0.0 size=N/A time=00:00:03.08 bitrate=N/A speed=5.98x    frame=  174 fps=167 q=-0.0 size=N/A time=00:00:07.25 bitrate=N/A speed=6.98x    frame=  280 fps=181 q=-0.0 size=N/A time=00:00:11.67 bitrate=N/A speed=7.54x    frame=  368 fps=179 q=-0.0 size=N/A time=00:00:15.34 bitrate=N/A speed=7.47x    frame=  473 fps=183 q=-0.0 size=N/A time=00:00:19.72 bitrate=N/A speed=7.65x    frame=  578 fps=187 q=-0.0 size=N/A time=00:00:24.10 bitrate=N/A speed= 7.8x    frame=  673 fps=186 q=-0.0 size=N/A time=00:00:28.06 bitrate=N/A speed=7.77x    frame=  775 fps=188 q=-0.0 size=N/A time=00:00:32.32 bitrate=N/A speed=7.84x    frame=  873 fps=188 q=-0.0 size=N/A time=00:00:36.41 bitrate=N/A speed=7.86x    frame=  966 fps=187 q=-0.0 size=N/A time=00:00:40.29 bitrate=N/A speed=7.81x    frame= 1066 fps=188 q=-0.0 size=N/A time=00:00:44.46 bitrate=N/A speed=7.83x    frame= 1167 fps=189 q=-0.0 size=N/A time=00:00:48.67 bitrate=N/A speed=7.87x    frame= 1269 fps=189 q=-0.0 size=N/A time=00:00:52.92 bitrate=N/A speed=7.89x    frame= 1371 fps=190 q=-0.0 size=N/A time=00:00:57.18 bitrate=N/A speed=7.91x    frame= 1467 fps=190 q=-0.0 size=N/A time=00:01:01.18 bitrate=N/A speed=7.91x    frame= 1567 fps=190 q=-0.0 size=N/A time=00:01:05.35 bitrate=N/A speed=7.91x    frame= 1655 fps=188 q=-0.0 size=N/A time=00:01:09.02 bitrate=N/A speed=7.86x    frame= 1756 fps=189 q=-0.0 size=N/A time=00:01:13.23 bitrate=N/A speed=7.87x    frame= 1860 fps=189 q=-0.0 size=N/A time=00:01:17.57 bitrate=N/A speed=7.89x    frame= 1967 fps=190 q=-0.0 size=N/A time=00:01:22.04 bitrate=N/A speed=7.93x    frame= 2061 fps=190 q=-0.0 size=N/A time=00:01:25.96 bitrate=N/A speed=7.92x    frame= 2162 fps=190 q=-0.0 size=N/A time=00:01:30.17 bitrate=N/A speed=7.92x    frame= 2261 fps=190 q=-0.0 size=N/A time=00:01:34.30 bitrate=N/A speed=7.92x    frame= 2358 fps=190 q=-0.0 size=N/A time=00:01:38.34 bitrate=N/A speed=7.91x    frame= 2447 fps=189 q=-0.0 size=N/A time=00:01:42.06 bitrate=N/A speed=7.89x    frame= 2556 fps=190 q=-0.0 size=N/A time=00:01:46.60 bitrate=N/A speed=7.92x    frame= 2653 fps=190 q=-0.0 size=N/A time=00:01:50.65 bitrate=N/A speed=7.92x    frame= 2749 fps=190 q=-0.0 size=N/A time=00:01:54.65 bitrate=N/A speed=7.91x    frame= 2842 fps=189 q=-0.0 size=N/A time=00:01:58.53 bitrate=N/A speed= 7.9x    frame= 2936 fps=189 q=-0.0 size=N/A time=00:02:02.45 bitrate=N/A speed=7.89x    frame= 3034 fps=189 q=-0.0 size=N/A time=00:02:06.54 bitrate=N/A speed=7.89x    frame= 3129 fps=189 q=-0.0 size=N/A time=00:02:10.50 bitrate=N/A speed=7.88x    frame= 3223 fps=189 q=-0.0 size=N/A time=00:02:14.42 bitrate=N/A speed=7.88x    frame= 3314 fps=189 q=-0.0 size=N/A time=00:02:18.22 bitrate=N/A speed=7.87x    frame= 3407 fps=188 q=-0.0 size=N/A time=00:02:22.10 bitrate=N/A speed=7.85x    frame= 3506 fps=188 q=-0.0 size=N/A time=00:02:26.22 bitrate=N/A speed=7.86x    frame= 3589 fps=188 q=-0.0 size=N/A time=00:02:29.69 bitrate=N/A speed=7.83x    frame= 3701 fps=188 q=-0.0 size=N/A time=00:02:34.36 bitrate=N/A speed=7.86x    frame= 3796 fps=188 q=-0.0 size=N/A time=00:02:38.32 bitrate=N/A speed=7.85x    frame= 3892 fps=188 q=-0.0 size=N/A time=00:02:42.32 bitrate=N/A speed=7.85x    frame= 3986 fps=188 q=-0.0 size=N/A time=00:02:46.24 bitrate=N/A speed=7.85x    frame= 4082 fps=188 q=-0.0 size=N/A time=00:02:50.25 bitrate=N/A speed=7.84x    frame= 4180 fps=188 q=-0.0 size=N/A time=00:02:54.34 bitrate=N/A speed=7.85x    frame= 4279 fps=188 q=-0.0 size=N/A time=00:02:58.46 bitrate=N/A speed=7.85x    frame= 4373 fps=188 q=-0.0 size=N/A time=00:03:02.39 bitrate=N/A speed=7.85x    frame= 4463 fps=188 q=-0.0 size=N/A time=00:03:06.14 bitrate=N/A speed=7.83x    frame= 4572 fps=188 q=-0.0 size=N/A time=00:03:10.69 bitrate=N/A speed=7.85x    frame= 4671 fps=188 q=-0.0 size=N/A time=00:03:14.81 bitrate=N/A speed=7.86x    frame= 4764 fps=188 q=-0.0 size=N/A time=00:03:18.69 bitrate=N/A speed=7.85x    frame= 4872 fps=189 q=-0.0 size=N/A time=00:03:23.20 bitrate=N/A speed=7.86x    frame= 4975 fps=189 q=-0.0 size=N/A time=00:03:27.49 bitrate=N/A speed=7.88x    frame= 5073 fps=189 q=-0.0 size=N/A time=00:03:31.58 bitrate=N/A speed=7.88x    frame= 5167 fps=189 q=-0.0 size=N/A time=00:03:35.50 bitrate=N/A speed=7.87x    frame= 5269 fps=189 q=-0.0 size=N/A time=00:03:39.76 bitrate=N/A speed=7.88x    frame= 5373 fps=189 q=-0.0 size=N/A time=00:03:44.09 bitrate=N/A speed=7.89x    frame= 5477 fps=189 q=-0.0 size=N/A time=00:03:48.43 bitrate=N/A speed= 7.9x    frame= 5576 fps=189 q=-0.0 size=N/A time=00:03:52.56 bitrate=N/A speed= 7.9x    frame= 5677 fps=190 q=-0.0 size=N/A time=00:03:56.77 bitrate=N/A speed=7.91x    frame= 5777 fps=190 q=-0.0 size=N/A time=00:04:00.94 bitrate=N/A speed=7.91x    frame= 5864 fps=189 q=-0.0 size=N/A time=00:04:04.57 bitrate=N/A speed= 7.9x    frame= 5969 fps=189 q=-0.0 size=N/A time=00:04:08.95 bitrate=N/A speed= 7.9x    frame= 6077 fps=190 q=-0.0 size=N/A time=00:04:13.46 bitrate=N/A speed=7.92x    frame= 6173 fps=190 q=-0.0 size=N/A time=00:04:17.46 bitrate=N/A speed=7.91x    frame= 6265 fps=190 q=-0.0 size=N/A time=00:04:21.30 bitrate=N/A speed=7.91x    frame= 6373 fps=190 q=-0.0 size=N/A time=00:04:25.80 bitrate=N/A speed=7.92x    frame= 6469 fps=190 q=-0.0 size=N/A time=00:04:29.81 bitrate=N/A speed=7.92x    frame= 6565 fps=190 q=-0.0 size=N/A time=00:04:33.81 bitrate=N/A speed=7.91x    frame= 6660 fps=190 q=-0.0 size=N/A time=00:04:37.77 bitrate=N/A speed=7.91x    frame= 6755 fps=190 q=-0.0 size=N/A time=00:04:41.73 bitrate=N/A speed=7.91x    frame= 6854 fps=190 q=-0.0 size=N/A time=00:04:45.86 bitrate=N/A speed=7.91x    frame= 6959 fps=190 q=-0.0 size=N/A time=00:04:50.24 bitrate=N/A speed=7.92x    frame= 7058 fps=190 q=-0.0 size=N/A time=00:04:54.37 bitrate=N/A speed=7.92x    frame= 7157 fps=190 q=-0.0 size=N/A time=00:04:58.50 bitrate=N/A speed=7.92x    frame= 7253 fps=190 q=-0.0 size=N/A time=00:05:02.51 bitrate=N/A speed=7.91x    frame= 7350 fps=190 q=-0.0 size=N/A time=00:05:06.55 bitrate=N/A speed=7.92x    frame= 7447 fps=190 q=-0.0 size=N/A time=00:05:10.60 bitrate=N/A speed=7.91x    frame= 7539 fps=190 q=-0.0 size=N/A time=00:05:14.43 bitrate=N/A speed=7.91x    frame= 7634 fps=190 q=-0.0 size=N/A time=00:05:18.40 bitrate=N/A speed= 7.9x    frame= 7729 fps=189 q=-0.0 size=N/A time=00:05:22.36 bitrate=N/A speed= 7.9x    frame= 7826 fps=189 q=-0.0 size=N/A time=00:05:26.40 bitrate=N/A speed= 7.9x    frame= 7925 fps=189 q=-0.0 size=N/A time=00:05:30.53 bitrate=N/A speed= 7.9x    frame= 8012 fps=189 q=-0.0 size=N/A time=00:05:34.16 bitrate=N/A speed=7.89x    frame= 8115 fps=189 q=-0.0 size=N/A time=00:05:38.46 bitrate=N/A speed= 7.9x    frame= 8218 fps=189 q=-0.0 size=N/A time=00:05:42.75 bitrate=N/A speed= 7.9x    frame= 8314 fps=189 q=-0.0 size=N/A time=00:05:46.76 bitrate=N/A speed= 7.9x    frame= 8416 fps=190 q=-0.0 size=N/A time=00:05:51.01 bitrate=N/A speed= 7.9x    frame= 8501 fps=189 q=-0.0 size=N/A time=00:05:54.56 bitrate=N/A speed=7.89x    frame= 8607 fps=189 q=-0.0 size=N/A time=00:05:58.98 bitrate=N/A speed= 7.9x    frame= 8706 fps=189 q=-0.0 size=N/A time=00:06:03.11 bitrate=N/A speed= 7.9x    frame= 8806 fps=189 q=-0.0 size=N/A time=00:06:07.28 bitrate=N/A speed= 7.9x    frame= 8902 fps=189 q=-0.0 size=N/A time=00:06:11.28 bitrate=N/A speed= 7.9x    frame= 9005 fps=190 q=-0.0 size=N/A time=00:06:15.58 bitrate=N/A speed=7.91x    frame= 9102 fps=190 q=-0.0 size=N/A time=00:06:19.62 bitrate=N/A speed=7.91x    frame= 9203 fps=190 q=-0.0 size=N/A time=00:06:23.84 bitrate=N/A speed=7.91x    frame= 9300 fps=190 q=-0.0 size=N/A time=00:06:27.88 bitrate=N/A speed=7.91x    frame= 9403 fps=190 q=-0.0 size=N/A time=00:06:32.18 bitrate=N/A speed=7.91x    frame= 9493 fps=190 q=-0.0 size=N/A time=00:06:35.93 bitrate=N/A speed= 7.9x    frame= 9600 fps=190 q=-0.0 size=N/A time=00:06:40.40 bitrate=N/A speed=7.91x    frame= 9694 fps=190 q=-0.0 size=N/A time=00:06:44.32 bitrate=N/A speed=7.91x    frame= 9800 fps=190 q=-0.0 size=N/A time=00:06:48.74 bitrate=N/A speed=7.91x    frame= 9899 fps=190 q=-0.0 size=N/A time=00:06:52.87 bitrate=N/A speed=7.92x    frame= 9988 fps=190 q=-0.0 size=N/A time=00:06:56.58 bitrate=N/A speed=7.91x    frame=10087 fps=190 q=-0.0 size=N/A time=00:07:00.71 bitrate=N/A speed=7.91x    frame=10168 fps=189 q=-0.0 size=N/A time=00:07:04.09 bitrate=N/A speed= 7.9x    frame=10268 fps=189 q=-0.0 size=N/A time=00:07:08.26 bitrate=N/A speed= 7.9x    frame=10365 fps=189 q=-0.0 size=N/A time=00:07:12.30 bitrate=N/A speed= 7.9x    frame=10452 fps=189 q=-0.0 size=N/A time=00:07:15.93 bitrate=N/A speed=7.89x    frame=10554 fps=189 q=-0.0 size=N/A time=00:07:20.18 bitrate=N/A speed=7.89x    frame=10650 fps=189 q=-0.0 size=N/A time=00:07:24.19 bitrate=N/A speed=7.89x    frame=10743 fps=189 q=-0.0 size=N/A time=00:07:28.07 bitrate=N/A speed=7.89x    frame=10837 fps=189 q=-0.0 size=N/A time=00:07:31.99 bitrate=N/A speed=7.89x    frame=10933 fps=189 q=-0.0 size=N/A time=00:07:35.99 bitrate=N/A speed=7.88x    frame=11030 fps=189 q=-0.0 size=N/A time=00:07:40.04 bitrate=N/A speed=7.88x    frame=11120 fps=189 q=-0.0 size=N/A time=00:07:43.79 bitrate=N/A speed=7.88x    frame=11209 fps=189 q=-0.0 size=N/A time=00:07:47.50 bitrate=N/A speed=7.87x    frame=11306 fps=189 q=-0.0 size=N/A time=00:07:51.55 bitrate=N/A speed=7.87x    frame=11392 fps=189 q=-0.0 size=N/A time=00:07:55.14 bitrate=N/A speed=7.86x    frame=11489 fps=189 q=-0.0 size=N/A time=00:07:59.18 bitrate=N/A speed=7.87x    frame=11576 fps=188 q=-0.0 size=N/A time=00:08:02.81 bitrate=N/A speed=7.86x    frame=11682 fps=189 q=-0.0 size=N/A time=00:08:07.23 bitrate=N/A speed=7.86x    frame=11768 fps=188 q=-0.0 size=N/A time=00:08:10.82 bitrate=N/A speed=7.86x    frame=11877 fps=189 q=-0.0 size=N/A time=00:08:15.36 bitrate=N/A speed=7.86x    frame=11975 fps=189 q=-0.0 size=N/A time=00:08:19.45 bitrate=N/A speed=7.87x    frame=12072 fps=189 q=-0.0 size=N/A time=00:08:23.50 bitrate=N/A speed=7.86x    frame=12168 fps=189 q=-0.0 size=N/A time=00:08:27.50 bitrate=N/A speed=7.86x    frame=12265 fps=189 q=-0.0 size=N/A time=00:08:31.55 bitrate=N/A speed=7.86x    frame=12358 fps=188 q=-0.0 size=N/A time=00:08:35.43 bitrate=N/A speed=7.86x    frame=12458 fps=189 q=-0.0 size=N/A time=00:08:39.60 bitrate=N/A speed=7.86x    frame=12557 fps=189 q=-0.0 size=N/A time=00:08:43.73 bitrate=N/A speed=7.87x    frame=12655 fps=189 q=-0.0 size=N/A time=00:08:47.81 bitrate=N/A speed=7.86x    frame=12747 fps=188 q=-0.0 size=N/A time=00:08:51.65 bitrate=N/A speed=7.86x    frame=12850 fps=189 q=-0.0 size=N/A time=00:08:55.95 bitrate=N/A speed=7.87x    frame=12951 fps=189 q=-0.0 size=N/A time=00:09:00.16 bitrate=N/A speed=7.87x    frame=13049 fps=189 q=-0.0 size=N/A time=00:09:04.25 bitrate=N/A speed=7.87x    frame=13141 fps=189 q=-0.0 size=N/A time=00:09:08.08 bitrate=N/A speed=7.87x    frame=13245 fps=189 q=-0.0 size=N/A time=00:09:12.42 bitrate=N/A speed=7.87x    frame=13337 fps=189 q=-0.0 size=N/A time=00:09:16.26 bitrate=N/A speed=7.87x    frame=13436 fps=189 q=-0.0 size=N/A time=00:09:20.39 bitrate=N/A speed=7.87x    frame=13535 fps=189 q=-0.0 size=N/A time=00:09:24.52 bitrate=N/A speed=7.87x    frame=13626 fps=189 q=-0.0 size=N/A time=00:09:28.31 bitrate=N/A speed=7.86x    frame=13732 fps=189 q=-0.0 size=N/A time=00:09:32.73 bitrate=N/A speed=7.87x    frame=13822 fps=189 q=-0.0 size=N/A time=00:09:36.49 bitrate=N/A speed=7.87x    frame=13926 fps=189 q=-0.0 size=N/A time=00:09:40.83 bitrate=N/A speed=7.87x    frame=14024 fps=189 q=-0.0 size=N/A time=00:09:44.91 bitrate=N/A speed=7.87x    frame=14113 fps=189 q=-0.0 size=N/A time=00:09:48.62 bitrate=N/A speed=7.86x    frame=14219 fps=189 q=-0.0 size=N/A time=00:09:53.05 bitrate=N/A speed=7.87x    frame=14315 fps=189 q=-0.0 size=N/A time=00:09:57.05 bitrate=N/A speed=7.87x    frame=14413 fps=189 q=-0.0 size=N/A time=00:10:01.14 bitrate=N/A speed=7.87x    frame=14514 fps=189 q=-0.0 size=N/A time=00:10:05.35 bitrate=N/A speed=7.87x    frame=14614 fps=189 q=-0.0 size=N/A time=00:10:09.52 bitrate=N/A speed=7.87x    frame=14712 fps=189 q=-0.0 size=N/A time=00:10:13.61 bitrate=N/A speed=7.87x    frame=14812 fps=189 q=-0.0 size=N/A time=00:10:17.78 bitrate=N/A speed=7.87x    frame=14898 fps=189 q=-0.0 size=N/A time=00:10:21.37 bitrate=N/A speed=7.87x    frame=15000 fps=189 q=-0.0 size=N/A time=00:10:25.62 bitrate=N/A speed=7.87x    frame=15097 fps=189 q=-0.0 size=N/A time=00:10:29.67 bitrate=N/A speed=7.87x    frame=15196 fps=189 q=-0.0 size=N/A time=00:10:33.79 bitrate=N/A speed=7.87x    frame=15295 fps=189 q=-0.0 size=N/A time=00:10:37.92 bitrate=N/A speed=7.87x    frame=15404 fps=189 q=-0.0 size=N/A time=00:10:42.47 bitrate=N/A speed=7.88x    frame=15501 fps=189 q=-0.0 size=N/A time=00:10:46.52 bitrate=N/A speed=7.88x    frame=15601 fps=189 q=-0.0 size=N/A time=00:10:50.69 bitrate=N/A speed=7.88x    frame=15700 fps=189 q=-0.0 size=N/A time=00:10:54.82 bitrate=N/A speed=7.88x    frame=15804 fps=189 q=-0.0 size=N/A time=00:10:59.15 bitrate=N/A speed=7.88x    frame=15900 fps=189 q=-0.0 size=N/A time=00:11:03.16 bitrate=N/A speed=7.88x    frame=16002 fps=189 q=-0.0 size=N/A time=00:11:07.41 bitrate=N/A speed=7.88x    frame=16099 fps=189 q=-0.0 size=N/A time=00:11:11.46 bitrate=N/A speed=7.89x    frame=16185 fps=189 q=-0.0 size=N/A time=00:11:15.04 bitrate=N/A speed=7.88x    frame=16301 fps=189 q=-0.0 size=N/A time=00:11:19.88 bitrate=N/A speed=7.89x    frame=16391 fps=189 q=-0.0 size=N/A time=00:11:23.64 bitrate=N/A speed=7.88x    frame=16499 fps=189 q=-0.0 size=N/A time=00:11:28.14 bitrate=N/A speed=7.89x    frame=16598 fps=189 q=-0.0 size=N/A time=00:11:32.27 bitrate=N/A speed=7.89x    frame=16697 fps=189 q=-0.0 size=N/A time=00:11:36.40 bitrate=N/A speed=7.89x    frame=16800 fps=189 q=-0.0 size=N/A time=00:11:40.70 bitrate=N/A speed=7.89x    frame=16900 fps=189 q=-0.0 size=N/A time=00:11:44.87 bitrate=N/A speed= 7.9x    frame=17004 fps=189 q=-0.0 size=N/A time=00:11:49.20 bitrate=N/A speed= 7.9x    frame=17104 fps=189 q=-0.0 size=N/A time=00:11:53.37 bitrate=N/A speed= 7.9x    frame=17204 fps=189 q=-0.0 size=N/A time=00:11:57.55 bitrate=N/A speed= 7.9x    frame=17290 fps=189 q=-0.0 size=N/A time=00:12:01.13 bitrate=N/A speed=7.89x    frame=17403 fps=189 q=-0.0 size=N/A time=00:12:05.85 bitrate=N/A speed= 7.9x    frame=17502 fps=189 q=-0.0 size=N/A time=00:12:09.97 bitrate=N/A speed= 7.9x    frame=17600 fps=189 q=-0.0 size=N/A time=00:12:14.06 bitrate=N/A speed= 7.9x    frame=17695 fps=189 q=-0.0 size=N/A time=00:12:18.02 bitrate=N/A speed= 7.9x    frame=17788 fps=189 q=-0.0 size=N/A time=00:12:21.90 bitrate=N/A speed= 7.9x    frame=17893 fps=189 q=-0.0 size=N/A time=00:12:26.28 bitrate=N/A speed= 7.9x    frame=18000 fps=190 q=-0.0 size=N/A time=00:12:30.75 bitrate=N/A speed=7.91x    frame=18099 fps=190 q=-0.0 size=N/A time=00:12:34.87 bitrate=N/A speed=7.91x    frame=18203 fps=190 q=-0.0 size=N/A time=00:12:39.21 bitrate=N/A speed=7.91x    frame=18301 fps=190 q=-0.0 size=N/A time=00:12:43.30 bitrate=N/A speed=7.91x    frame=18399 fps=190 q=-0.0 size=N/A time=00:12:47.39 bitrate=N/A speed=7.91x    frame=18491 fps=190 q=-0.0 size=N/A time=00:12:51.22 bitrate=N/A speed=7.91x    frame=18589 fps=190 q=-0.0 size=N/A time=00:12:55.31 bitrate=N/A speed=7.91x    frame=18703 fps=190 q=-0.0 size=N/A time=00:13:00.07 bitrate=N/A speed=7.91x    frame=18794 fps=190 q=-0.0 size=N/A time=00:13:03.86 bitrate=N/A speed=7.91x    frame=18900 fps=190 q=-0.0 size=N/A time=00:13:08.28 bitrate=N/A speed=7.91x    frame=18999 fps=190 q=-0.0 size=N/A time=00:13:12.41 bitrate=N/A speed=7.92x    frame=19098 fps=190 q=-0.0 size=N/A time=00:13:16.54 bitrate=N/A speed=7.92x    frame=19200 fps=190 q=-0.0 size=N/A time=00:13:20.80 bitrate=N/A speed=7.92x    frame=19296 fps=190 q=-0.0 size=N/A time=00:13:24.80 bitrate=N/A speed=7.92x    frame=19394 fps=190 q=-0.0 size=N/A time=00:13:28.89 bitrate=N/A speed=7.92x    frame=19491 fps=190 q=-0.0 size=N/A time=00:13:32.93 bitrate=N/A speed=7.92x    frame=19591 fps=190 q=-0.0 size=N/A time=00:13:37.10 bitrate=N/A speed=7.92x    frame=19692 fps=190 q=-0.0 size=N/A time=00:13:41.32 bitrate=N/A speed=7.92x    frame=19791 fps=190 q=-0.0 size=N/A time=00:13:45.44 bitrate=N/A speed=7.92x    frame=19891 fps=190 q=-0.0 size=N/A time=00:13:49.62 bitrate=N/A speed=7.92x    frame=19988 fps=190 q=-0.0 size=N/A time=00:13:53.66 bitrate=N/A speed=7.92x    frame=20083 fps=190 q=-0.0 size=N/A time=00:13:57.62 bitrate=N/A speed=7.92x    frame=20187 fps=190 q=-0.0 size=N/A time=00:14:01.96 bitrate=N/A speed=7.92x    frame=20281 fps=190 q=-0.0 size=N/A time=00:14:05.88 bitrate=N/A speed=7.92x    frame=20384 fps=190 q=-0.0 size=N/A time=00:14:10.18 bitrate=N/A speed=7.92x    frame=20478 fps=190 q=-0.0 size=N/A time=00:14:14.10 bitrate=N/A speed=7.92x    frame=20570 fps=190 q=-0.0 size=N/A time=00:14:17.94 bitrate=N/A speed=7.92x    frame=20670 fps=190 q=-0.0 size=N/A time=00:14:22.11 bitrate=N/A speed=7.92x    frame=20779 fps=190 q=-0.0 size=N/A time=00:14:26.65 bitrate=N/A speed=7.92x    frame=20872 fps=190 q=-0.0 size=N/A time=00:14:30.53 bitrate=N/A speed=7.92x    frame=20975 fps=190 q=-0.0 size=N/A time=00:14:34.83 bitrate=N/A speed=7.92x    frame=21073 fps=190 q=-0.0 size=N/A time=00:14:38.91 bitrate=N/A speed=7.92x    frame=21170 fps=190 q=-0.0 size=N/A time=00:14:42.96 bitrate=N/A speed=7.92x    frame=21262 fps=190 q=-0.0 size=N/A time=00:14:46.80 bitrate=N/A speed=7.92x    frame=21369 fps=190 q=-0.0 size=N/A time=00:14:51.26 bitrate=N/A speed=7.92x    frame=21467 fps=190 q=-0.0 size=N/A time=00:14:55.35 bitrate=N/A speed=7.92x    frame=21569 fps=190 q=-0.0 size=N/A time=00:14:59.60 bitrate=N/A speed=7.92x    frame=21668 fps=190 q=-0.0 size=N/A time=00:15:03.73 bitrate=N/A speed=7.92x    frame=21760 fps=190 q=-0.0 size=N/A time=00:15:07.57 bitrate=N/A speed=7.92x    frame=21862 fps=190 q=-0.0 size=N/A time=00:15:11.82 bitrate=N/A speed=7.92x    frame=21967 fps=190 q=-0.0 size=N/A time=00:15:16.20 bitrate=N/A speed=7.93x    frame=22060 fps=190 q=-0.0 size=N/A time=00:15:20.08 bitrate=N/A speed=7.92x    frame=22156 fps=190 q=-0.0 size=N/A time=00:15:24.08 bitrate=N/A speed=7.92x    frame=22260 fps=190 q=-0.0 size=N/A time=00:15:28.42 bitrate=N/A speed=7.92x    frame=22356 fps=190 q=-0.0 size=N/A time=00:15:32.43 bitrate=N/A speed=7.92x    frame=22458 fps=190 q=-0.0 size=N/A time=00:15:36.68 bitrate=N/A speed=7.93x    frame=22550 fps=190 q=-0.0 size=N/A time=00:15:40.52 bitrate=N/A speed=7.92x    frame=22653 fps=190 q=-0.0 size=N/A time=00:15:44.81 bitrate=N/A speed=7.92x    frame=22739 fps=190 q=-0.0 size=N/A time=00:15:48.40 bitrate=N/A speed=7.92x    frame=22838 fps=190 q=-0.0 size=N/A time=00:15:52.53 bitrate=N/A speed=7.92x    frame=22945 fps=190 q=-0.0 size=N/A time=00:15:56.99 bitrate=N/A speed=7.92x    frame=23045 fps=190 q=-0.0 size=N/A time=00:16:01.16 bitrate=N/A speed=7.92x    frame=23142 fps=190 q=-0.0 size=N/A time=00:16:05.21 bitrate=N/A speed=7.92x    frame=23237 fps=190 q=-0.0 size=N/A time=00:16:09.17 bitrate=N/A speed=7.92x    frame=23333 fps=190 q=-0.0 size=N/A time=00:16:13.18 bitrate=N/A speed=7.92x    frame=23427 fps=190 q=-0.0 size=N/A time=00:16:17.10 bitrate=N/A speed=7.92x    frame=23525 fps=190 q=-0.0 size=N/A time=00:16:21.18 bitrate=N/A speed=7.92x    frame=23623 fps=190 q=-0.0 size=N/A time=00:16:25.27 bitrate=N/A speed=7.92x    frame=23721 fps=190 q=-0.0 size=N/A time=00:16:29.36 bitrate=N/A speed=7.92x    frame=23812 fps=190 q=-0.0 size=N/A time=00:16:33.15 bitrate=N/A speed=7.92x    frame=23914 fps=190 q=-0.0 size=N/A time=00:16:37.41 bitrate=N/A speed=7.92x    frame=24011 fps=190 q=-0.0 size=N/A time=00:16:41.45 bitrate=N/A speed=7.92x    frame=24112 fps=190 q=-0.0 size=N/A time=00:16:45.67 bitrate=N/A speed=7.92x    frame=24214 fps=190 q=-0.0 size=N/A time=00:16:49.92 bitrate=N/A speed=7.92x    frame=24311 fps=190 q=-0.0 size=N/A time=00:16:53.97 bitrate=N/A speed=7.92x    frame=24413 fps=190 q=-0.0 size=N/A time=00:16:58.22 bitrate=N/A speed=7.92x    frame=24513 fps=190 q=-0.0 size=N/A time=00:17:02.39 bitrate=N/A speed=7.92x    frame=24612 fps=190 q=-0.0 size=N/A time=00:17:06.52 bitrate=N/A speed=7.92x    frame=24709 fps=190 q=-0.0 size=N/A time=00:17:10.57 bitrate=N/A speed=7.92x    frame=24811 fps=190 q=-0.0 size=N/A time=00:17:14.82 bitrate=N/A speed=7.93x    frame=24902 fps=190 q=-0.0 size=N/A time=00:17:18.62 bitrate=N/A speed=7.92x    frame=24992 fps=190 q=-0.0 size=N/A time=00:17:22.37 bitrate=N/A speed=7.92x    frame=25094 fps=190 q=-0.0 size=N/A time=00:17:26.62 bitrate=N/A speed=7.92x    frame=25192 fps=190 q=-0.0 size=N/A time=00:17:30.71 bitrate=N/A speed=7.92x    frame=25295 fps=190 q=-0.0 size=N/A time=00:17:35.01 bitrate=N/A speed=7.92x    frame=25389 fps=190 q=-0.0 size=N/A time=00:17:38.93 bitrate=N/A speed=7.92x    frame=25489 fps=190 q=-0.0 size=N/A time=00:17:43.10 bitrate=N/A speed=7.92x    frame=25582 fps=190 q=-0.0 size=N/A time=00:17:46.98 bitrate=N/A speed=7.92x    frame=25688 fps=190 q=-0.0 size=N/A time=00:17:51.40 bitrate=N/A speed=7.92x    frame=25778 fps=190 q=-0.0 size=N/A time=00:17:55.15 bitrate=N/A speed=7.92x    frame=25870 fps=190 q=-0.0 size=N/A time=00:17:58.99 bitrate=N/A speed=7.92x    frame=25978 fps=190 q=-0.0 size=N/A time=00:18:03.49 bitrate=N/A speed=7.92x    frame=26075 fps=190 q=-0.0 size=N/A time=00:18:07.54 bitrate=N/A speed=7.92x    frame=26171 fps=190 q=-0.0 size=N/A time=00:18:11.54 bitrate=N/A speed=7.92x    frame=26270 fps=190 q=-0.0 size=N/A time=00:18:15.67 bitrate=N/A speed=7.92x    frame=26365 fps=190 q=-0.0 size=N/A time=00:18:19.64 bitrate=N/A speed=7.92x    frame=26460 fps=190 q=-0.0 size=N/A time=00:18:23.60 bitrate=N/A speed=7.92x    frame=26567 fps=190 q=-0.0 size=N/A time=00:18:28.06 bitrate=N/A speed=7.92x    frame=26662 fps=190 q=-0.0 size=N/A time=00:18:32.02 bitrate=N/A speed=7.92x    frame=26760 fps=190 q=-0.0 size=N/A time=00:18:36.11 bitrate=N/A speed=7.92x    frame=26859 fps=190 q=-0.0 size=N/A time=00:18:40.24 bitrate=N/A speed=7.92x    frame=26958 fps=190 q=-0.0 size=N/A time=00:18:44.37 bitrate=N/A speed=7.92x    frame=27055 fps=190 q=-0.0 size=N/A time=00:18:48.41 bitrate=N/A speed=7.92x    frame=27141 fps=190 q=-0.0 size=N/A time=00:18:52.00 bitrate=N/A speed=7.92x    frame=27248 fps=190 q=-0.0 size=N/A time=00:18:56.46 bitrate=N/A speed=7.92x    frame=27346 fps=190 q=-0.0 size=N/A time=00:19:00.55 bitrate=N/A speed=7.92x    frame=27441 fps=190 q=-0.0 size=N/A time=00:19:04.51 bitrate=N/A speed=7.92x    frame=27547 fps=190 q=-0.0 size=N/A time=00:19:08.93 bitrate=N/A speed=7.92x    frame=27648 fps=190 q=-0.0 size=N/A time=00:19:13.15 bitrate=N/A speed=7.92x    frame=27744 fps=190 q=-0.0 size=N/A time=00:19:17.15 bitrate=N/A speed=7.92x    frame=27843 fps=190 q=-0.0 size=N/A time=00:19:21.28 bitrate=N/A speed=7.92x    frame=27939 fps=190 q=-0.0 size=N/A time=00:19:25.28 bitrate=N/A speed=7.92x    frame=28038 fps=190 q=-0.0 size=N/A time=00:19:29.41 bitrate=N/A speed=7.92x    frame=28138 fps=190 q=-0.0 size=N/A time=00:19:33.58 bitrate=N/A speed=7.92x    frame=28236 fps=190 q=-0.0 size=N/A time=00:19:37.67 bitrate=N/A speed=7.92x    frame=28320 fps=190 q=-0.0 size=N/A time=00:19:41.18 bitrate=N/A speed=7.92x    frame=28432 fps=190 q=-0.0 size=N/A time=00:19:45.85 bitrate=N/A speed=7.92x    frame=28522 fps=190 q=-0.0 size=N/A time=00:19:49.60 bitrate=N/A speed=7.92x    frame=28625 fps=190 q=-0.0 size=N/A time=00:19:53.90 bitrate=N/A speed=7.92x    frame=28722 fps=190 q=-0.0 size=N/A time=00:19:57.94 bitrate=N/A speed=7.92x    frame=28821 fps=190 q=-0.0 size=N/A time=00:20:02.07 bitrate=N/A speed=7.92x    frame=28917 fps=190 q=-0.0 size=N/A time=00:20:06.07 bitrate=N/A speed=7.92x    frame=29016 fps=190 q=-0.0 size=N/A time=00:20:10.20 bitrate=N/A speed=7.92x    frame=29119 fps=190 q=-0.0 size=N/A time=00:20:14.50 bitrate=N/A speed=7.92x    frame=29220 fps=190 q=-0.0 size=N/A time=00:20:18.71 bitrate=N/A speed=7.92x    frame=29310 fps=190 q=-0.0 size=N/A time=00:20:22.47 bitrate=N/A speed=7.92x    frame=29420 fps=190 q=-0.0 size=N/A time=00:20:27.05 bitrate=N/A speed=7.93x    frame=29520 fps=190 q=-0.0 size=N/A time=00:20:31.23 bitrate=N/A speed=7.93x    frame=29618 fps=190 q=-0.0 size=N/A time=00:20:35.31 bitrate=N/A speed=7.93x    frame=29709 fps=190 q=-0.0 size=N/A time=00:20:39.11 bitrate=N/A speed=7.92x    frame=29818 fps=190 q=-0.0 size=N/A time=00:20:43.65 bitrate=N/A speed=7.93x    frame=29917 fps=190 q=-0.0 size=N/A time=00:20:47.78 bitrate=N/A speed=7.93x    frame=30019 fps=190 q=-0.0 size=N/A time=00:20:52.04 bitrate=N/A speed=7.93x    frame=30121 fps=190 q=-0.0 size=N/A time=00:20:56.29 bitrate=N/A speed=7.93x    frame=30223 fps=190 q=-0.0 size=N/A time=00:21:00.55 bitrate=N/A speed=7.93x    frame=30317 fps=190 q=-0.0 size=N/A time=00:21:04.47 bitrate=N/A speed=7.93x    frame=30412 fps=190 q=-0.0 size=N/A time=00:21:08.43 bitrate=N/A speed=7.93x    frame=30512 fps=190 q=-0.0 size=N/A time=00:21:12.60 bitrate=N/A speed=7.93x    frame=30615 fps=190 q=-0.0 size=N/A time=00:21:16.90 bitrate=N/A speed=7.93x    frame=30718 fps=190 q=-0.0 size=N/A time=00:21:21.19 bitrate=N/A speed=7.93x    frame=30812 fps=190 q=-0.0 size=N/A time=00:21:25.11 bitrate=N/A speed=7.93x    frame=30914 fps=190 q=-0.0 size=N/A time=00:21:29.37 bitrate=N/A speed=7.93x    frame=31017 fps=190 q=-0.0 size=N/A time=00:21:33.66 bitrate=N/A speed=7.93x    frame=31106 fps=190 q=-0.0 size=N/A time=00:21:37.37 bitrate=N/A speed=7.93x    frame=31215 fps=190 q=-0.0 size=N/A time=00:21:41.92 bitrate=N/A speed=7.93x    frame=31316 fps=190 q=-0.0 size=N/A time=00:21:46.13 bitrate=N/A speed=7.93x    frame=31415 fps=190 q=-0.0 size=N/A time=00:21:50.26 bitrate=N/A speed=7.93x    frame=31512 fps=190 q=-0.0 size=N/A time=00:21:54.31 bitrate=N/A speed=7.93x    frame=31605 fps=190 q=-0.0 size=N/A time=00:21:58.19 bitrate=N/A speed=7.93x    frame=31708 fps=190 q=-0.0 size=N/A time=00:22:02.48 bitrate=N/A speed=7.93x    frame=31805 fps=190 q=-0.0 size=N/A time=00:22:06.53 bitrate=N/A speed=7.93x    frame=31901 fps=190 q=-0.0 size=N/A time=00:22:10.53 bitrate=N/A speed=7.93x    frame=31993 fps=190 q=-0.0 size=N/A time=00:22:14.37 bitrate=N/A speed=7.93x    frame=32092 fps=190 q=-0.0 size=N/A time=00:22:18.50 bitrate=N/A speed=7.93x    frame=32191 fps=190 q=-0.0 size=N/A time=00:22:22.63 bitrate=N/A speed=7.93x    frame=32285 fps=190 q=-0.0 size=N/A time=00:22:26.55 bitrate=N/A speed=7.93x    frame=32380 fps=190 q=-0.0 size=N/A time=00:22:30.51 bitrate=N/A speed=7.93x    frame=32469 fps=190 q=-0.0 size=N/A time=00:22:34.22 bitrate=N/A speed=7.93x    frame=32571 fps=190 q=-0.0 size=N/A time=00:22:38.48 bitrate=N/A speed=7.93x    frame=32666 fps=190 q=-0.0 size=N/A time=00:22:42.44 bitrate=N/A speed=7.93x    frame=32761 fps=190 q=-0.0 size=N/A time=00:22:46.40 bitrate=N/A speed=7.93x    frame=32860 fps=190 q=-0.0 size=N/A time=00:22:50.53 bitrate=N/A speed=7.93x    frame=32955 fps=190 q=-0.0 size=N/A time=00:22:54.49 bitrate=N/A speed=7.93x    frame=33052 fps=190 q=-0.0 size=N/A time=00:22:58.54 bitrate=N/A speed=7.93x    frame=33149 fps=190 q=-0.0 size=N/A time=00:23:02.58 bitrate=N/A speed=7.93x    frame=33246 fps=190 q=-0.0 size=N/A time=00:23:06.63 bitrate=N/A speed=7.93x    frame=33343 fps=190 q=-0.0 size=N/A time=00:23:10.68 bitrate=N/A speed=7.93x    frame=33444 fps=190 q=-0.0 size=N/A time=00:23:14.89 bitrate=N/A speed=7.93x    frame=33534 fps=190 q=-0.0 size=N/A time=00:23:18.64 bitrate=N/A speed=7.93x    frame=33636 fps=190 q=-0.0 size=N/A time=00:23:22.90 bitrate=N/A speed=7.93x    frame=33726 fps=190 q=-0.0 size=N/A time=00:23:26.65 bitrate=N/A speed=7.92x    frame=33837 fps=190 q=-0.0 size=N/A time=00:23:31.28 bitrate=N/A speed=7.93x    frame=33930 fps=190 q=-0.0 size=N/A time=00:23:35.16 bitrate=N/A speed=7.93x    frame=34036 fps=190 q=-0.0 size=N/A time=00:23:39.58 bitrate=N/A speed=7.93x    [Parsed_ssim_10 @ 0000027aa0bd0b40] SSIM Y:0.990624 (20.279717) U:0.992150 (21.051107) V:0.992513 (21.256724) All:0.991193 (20.551669)
[out#0/null @ 0000027a9e97e8c0] video:14630KiB audio:266612KiB subtitle:0KiB other streams:0KiB global headers:0KiB muxing overhead: unknown
frame=34049 fps=190 q=-0.0 Lsize=N/A time=00:23:40.12 bitrate=N/A speed=7.93x    
